# xmcd
#
# Track frame offsets:
#	150
#	18583
#	38598
#	50932
#	72008
#	84685
#	101133
#	117845
#	136935
#	152870
#	166580
#	178130
#	192922
#	206873
#	223512
#	241234
#	260214
#	276734
#	294942
#	310641
#
# Disc length: 4378 seconds
#
# Revision: 1
# Processed by: cddbd v1.5.1PL0 Copyright (c) Steve Scherf et al.
# Submitted via: audiograbber 1.83.01
#
DISCID=2f111814
DTITLE=Promo Only Canada - Country Radio - 1999 - 09 - September
DYEAR=1999
DGENRE=Country
TTITLE0=Clint Black - When I Said I Do
TTITLE1=Paul Brandt - It's A Beautiful Thing
TTITLE2=Mindy McCready - All I Want Is Everything
TTITLE3=Chalee Tennison - Handful Of Water
TTITLE4=Brad Paisley - He Didn't Have To Be
TTITLE5=Pam Tillis - After A Kiss
TTITLE6=Clay Walker - Live, Laugh, Love
TTITLE7=Gary Allan - Smoke Rings In The Dark
TTITLE8=Lace - I Want A Man
TTITLE9=Kenny Rogers - Slow Dance More
TTITLE10=Matt King - Rub It In
TTITLE11=The Wilkinsons - Nothing But Love (Standing In The Way)
TTITLE12=LeAnn Rimes - Big Deal
TTITLE13=Suzy Boggus - Goodnight
TTITLE14=Dwight Yoakam - Thinking About Leaving
TTITLE15=Sammy Kershaw - When You Love Someone
TTITLE16=Keith Urban - It's A Love Thing
TTITLE17=Shirley Myers - You Better Be Sure
TTITLE18=Philip Claypool - Perfect World
TTITLE19=Blackie And The Rodeo Kings - The Lucky Ones
EXTD=
EXTT0=
EXTT1=
EXTT2=
EXTT3=
EXTT4=
EXTT5=
EXTT6=
EXTT7=
EXTT8=
EXTT9=
EXTT10=
EXTT11=
EXTT12=
EXTT13=
EXTT14=
EXTT15=
EXTT16=
EXTT17=
EXTT18=
EXTT19=
PLAYORDER=
